<?xml version="1.0" encoding="UTF-8" standalone="no"?>
<!-- Created with Inkscape (http://www.inkscape.org/) -->

<svg
   xmlns:dc="http://purl.org/dc/elements/1.1/"
   xmlns:cc="http://creativecommons.org/ns#"
   xmlns:rdf="http://www.w3.org/1999/02/22-rdf-syntax-ns#"
   xmlns:svg="http://www.w3.org/2000/svg"
   xmlns="http://www.w3.org/2000/svg"
   xmlns:sodipodi="http://sodipodi.sourceforge.net/DTD/sodipodi-0.dtd"
   xmlns:inkscape="http://www.inkscape.org/namespaces/inkscape"
   width="744.09448819"
   height="1052.3622047"
   id="svg2"
   version="1.1"
   inkscape:version="0.47 r22583"
   sodipodi:docname="leet.svg">
  <defs
     id="defs4">
    <inkscape:perspective
       sodipodi:type="inkscape:persp3d"
       inkscape:vp_x="0 : 526.18109 : 1"
       inkscape:vp_y="0 : 1000 : 0"
       inkscape:vp_z="744.09448 : 526.18109 : 1"
       inkscape:persp3d-origin="372.04724 : 350.78739 : 1"
       id="perspective10" />
  </defs>
  <sodipodi:namedview
     id="base"
     pagecolor="#ffffff"
     bordercolor="#666666"
     borderopacity="1.0"
     inkscape:pageopacity="0.0"
     inkscape:pageshadow="2"
     inkscape:zoom="0.35"
     inkscape:cx="375"
     inkscape:cy="1662.8571"
     inkscape:document-units="px"
     inkscape:current-layer="layer1"
     showgrid="false"
     inkscape:window-width="1323"
     inkscape:window-height="809"
     inkscape:window-x="414"
     inkscape:window-y="104"
     inkscape:window-maximized="0" />
  <metadata
     id="metadata7">
    <rdf:RDF>
      <cc:Work
         rdf:about="">
        <dc:format>image/svg+xml</dc:format>
        <dc:type
           rdf:resource="http://purl.org/dc/dcmitype/StillImage" />
        <dc:title></dc:title>
      </cc:Work>
    </rdf:RDF>
  </metadata>
  <g
     inkscape:label="Layer 1"
     inkscape:groupmode="layer"
     id="layer1">
    <path
       style="fill:#000000"
       id="path2838"
       d="m -814.57126,-498.69759 c 12.16066,-40.24862 20.49271,-81.52633 31.92233,-121.96698 2.99427,-10.59442 6.4093,-21.06539 9.61395,-31.59808 7.84241,-24.10503 17.21441,-47.73429 29.19275,-70.10055 4.75766,-8.88363 9.21519,-16.4225 15.61628,-24.0848 1.80543,-2.16115 3.9666,-3.99832 5.9499,-5.99748 13.71126,-7.57618 26.63254,-16.80308 41.13378,-22.72856 2.24034,-0.91544 4.637,1.70508 6.4813,3.27215 11.51401,9.78323 18.22567,37.97953 22.40987,51.72722 7.86433,32.1114 16.52404,64.12684 21.62028,96.82791 1.25983,6.83611 1.28607,13.6216 0.6242,20.48988 0,0 -37.60495,18.43682 -37.60495,18.43682 l 0,0 c 1.45209,-6.63044 1.79915,-13.15435 0.88799,-19.94705 -3.39658,-32.86775 -11.49452,-65.02908 -19.95921,-96.90422 -4.6634,-13.99452 -8.64548,-29.73018 -17.31457,-42.00403 -1.43837,-2.03646 -3.13589,-4.0081 -5.25356,-5.32397 -1.36378,-0.84743 -6.00514,0.0997 -4.73528,-0.88286 9.26132,-7.16618 19.89245,-12.36101 29.83868,-18.54152 -2.30042,1.88989 -4.81722,3.54355 -6.90125,5.66968 -7.12055,7.2644 -12.28587,15.27891 -17.43549,24.06556 -13.04594,22.25991 -23.17183,46.05324 -31.53964,70.42836 -3.26355,10.49696 -6.82106,20.907 -9.79065,31.49088 -5.88196,20.96381 -10.08819,41.17281 -14.78689,62.38467 -3.30324,14.91217 -6.91886,29.75532 -10.09383,44.69532 -0.88183,4.14955 -1.52339,8.34654 -2.28508,12.5198 0,0 -37.59091,18.07185 -37.59091,18.07185 z"
       inkscape:export-filename="/home/daniel/leet.png"
       inkscape:export-xdpi="90"
       inkscape:export-ydpi="90" />
    <path
       style="fill:#000000"
       id="path2840"
       d="m -505.25349,-912.15814 c -13.93484,40.99183 -16.92844,84.47722 -20.11702,127.33037 -1.68748,52.54592 -2.25093,106.58603 12.56991,157.58544 2.28109,7.84936 5.50993,15.39169 8.2649,23.08754 5.37557,10.94451 13.87917,32.35495 24.74042,39.83398 2.19579,1.51202 5.05599,2.60393 7.69065,2.19615 2.70404,-0.41851 9.49826,-5.29782 6.89547,-4.45371 -9.23105,2.99369 -17.97977,7.30927 -26.96966,10.96391 2.55232,-5.55642 5.67284,-10.88554 7.65696,-16.66926 12.94704,-37.74075 13.98497,-87.40662 10.51387,-126.66449 -1.1339,-12.82441 -3.4123,-25.52177 -5.11845,-38.28266 -6.64146,-35.55428 -17.93648,-69.85861 -32.70614,-102.81988 -4.01795,-8.96683 -8.6204,-17.66014 -12.9306,-26.49021 0,0 32.33738,-18.31468 32.33738,-18.31468 l 0,0 c 4.11105,9.02085 8.46576,17.93459 12.33316,27.06256 14.21388,33.54816 25.55434,68.18711 32.29276,104.05749 1.81149,12.82049 4.13604,25.57889 5.43447,38.46145 4.00838,39.76947 4.01219,87.55297 -6.44648,126.50128 -1.58558,5.90473 -4.10663,11.51761 -6.15995,17.27641 -14.2133,10.14071 -27.85907,21.1281 -42.63989,30.42214 -2.52067,1.58497 -5.78239,2.2834 -8.73254,1.88033 -7.2461,-0.99001 -12.31511,-8.4214 -15.75377,-13.7006 -7.54811,-11.58824 -10.2569,-19.81615 -15.78794,-32.8555 -2.60332,-7.93139 -5.63541,-15.73466 -7.80998,-23.79416 -13.92663,-51.61573 -13.71535,-105.77869 -12.57276,-158.78653 2.29125,-42.2356 4.60263,-84.72635 15.07382,-125.90087 0,0 37.94141,-17.9265 37.94141,-17.9265 z"
       inkscape:export-filename="/home/daniel/leet.png"
       inkscape:export-xdpi="90"
       inkscape:export-ydpi="90" />
    <path
       style="fill:#000000"
       id="path2842"
       d="m -377.95788,-834.74537 c 4.41049,45.63089 7.12688,91.40364 10.26269,137.13532 1.92239,26.59708 4.9188,53.09023 8.10134,79.55869 0,0 -34.24117,17.87079 -34.24117,17.87079 l 0,0 c -2.05352,-26.8321 -4.15955,-53.66035 -6.5592,-80.46427 -3.54855,-44.97583 -6.47059,-90.23363 -14.56656,-134.66328 0,0 37.0029,-19.43725 37.0029,-19.43725 z"
       inkscape:export-filename="/home/daniel/leet.png"
       inkscape:export-xdpi="90"
       inkscape:export-ydpi="90" />
    <path
       style="fill:#000000"
       id="path2844"
       d="m -345.56696,-856.14496 c 15.24181,18.07376 33.67398,33.14848 50.71692,49.47694 17.34097,17.56924 34.2037,36.31867 45.11365,58.71047 7.05981,14.48967 7.98128,20.14658 12.45906,35.5805 6.94929,29.08633 8.20627,59.59391 0.93671,88.78681 -1.33809,5.37348 -3.29549,10.57349 -4.94324,15.86024 -6.12301,15.24925 -14.40511,29.62748 -26.13359,41.3067 -19.01771,18.93786 -53.04818,33.11009 -73.97714,44.13979 -5.45859,1.47733 -10.83084,3.32181 -16.37577,4.432 -21.41233,4.28708 -46.76921,4.19834 -68.01054,-1.20951 -4.02825,-1.02556 -7.83889,-2.76876 -11.75834,-4.15313 -13.28872,-8.10716 -12.81521,-8.51604 -11.76533,-23.2489 0,0 36.92292,-18.20223 36.92292,-18.20223 l 0,0 c -2.56011,12.05237 -2.52584,11.93219 8.43682,18.75566 3.64162,1.3052 7.17726,2.95616 10.92485,3.91559 21.31524,5.45697 45.28936,4.92297 66.62251,-0.0188 5.498,-1.2736 10.80093,-3.27725 16.2014,-4.91588 -6.45836,4.40295 -13.4826,8.07318 -19.37508,13.20885 -3.86674,3.3701 8.98343,-4.98094 13.232,-7.85477 18.01975,-12.18901 30.8557,-29.22621 39.14413,-49.25482 1.74093,-5.1592 3.79979,-10.22182 5.22279,-15.47761 7.7282,-28.54359 6.88523,-58.65766 0.23844,-87.27596 -4.30596,-14.99799 -5.23011,-20.67708 -12.0651,-34.74659 -10.7199,-22.06643 -27.33655,-40.56166 -44.7032,-57.5781 -17.61443,-16.3155 -36.49208,-31.23429 -53.25836,-48.4383 0,0 36.19349,-21.79897 36.19349,-21.79897 z"
       inkscape:export-filename="/home/daniel/leet.png"
       inkscape:export-xdpi="90"
       inkscape:export-ydpi="90" />
    <path
       style="fill:#000000"
       id="path2850"
       d="m -226.90591,-815.62612 c 20.41526,-6.0457 41.94218,-6.51436 63.0648,-7.15434 19.70826,0.70275 40.72932,0.71961 58.98859,9.35393 9.373495,4.43247 10.903746,6.79704 18.267002,13.5327 2.089114,3.08341 4.485516,5.97962 6.267344,9.25024 9.767596,17.92882 10.969328,39.999 12.079362,59.92764 0.05,15.92533 -0.980613,27.55958 -14.214606,37.63202 -102.979792,59.11101 -6.181898,3.6255 -4.656634,2.68524 0.351885,-0.21693 -0.686865,-0.56375 -0.775894,-0.96742 -0.04132,-0.18736 0.42388,-0.0706 0.573469,0.0496 1.864596,1.4977 3.4307,3.33325 5.165242,4.97982 5.29546,5.95883 10.231487,14.20589 6.963829,22.43012 -0.679731,1.71078 -1.901063,3.15297 -2.851594,4.72946 -32.78815,28.05651 -62.06008,31.18153 -100.98141,34.92615 -4.53176,0.37305 -9.06353,0.74611 -13.59529,1.11916 0,0 32.37808,-23.9231 32.37808,-23.9231 l 0,0 c 4.45186,-0.34894 8.90372,-0.69789 13.35558,-1.04683 14.01369,-1.4994 27.94789,-3.02254 41.68795,-6.2948 3.61645,-0.86127 13.558813,-5.41474 10.746299,-2.98362 -10.747849,9.29036 -40.689939,24.0935 -22.063199,14.74227 1.11289,-1.1253 2.40601,-2.09725 3.33866,-3.37592 4.6254,-6.34147 -0.25216,-13.48831 -4.77511,-18.18256 -2.5518,-2.27814 -6.30774,-4.76488 -7.9859,-7.84733 -0.48093,-0.88338 -1.58561,-2.36166 -0.75071,-2.92255 1.64627,-1.10598 91.242416,-52.92403 5.15532,-2.97037 1.47085,-0.73116 3.04305,-1.28658 4.41254,-2.19348 10.66401,-7.06183 12.44124,-20.2096 12.7061,-31.97141 -0.49541,-19.20794 -1.58244,-40.62561 -11.08784,-57.87357 -1.64688,-2.98833 -3.88054,-5.61345 -5.82082,-8.42017 -2.47203,-2.25467 -4.71189,-4.7938 -7.4161,-6.76401 -19.11205,-13.92447 -44.59317,-13.67364 -67.09476,-14.18628 -21.75314,1.08707 -43.92737,2.23001 -64.59589,9.75755 0,0 33.51559,-26.03812 33.51559,-26.03812 z"
       inkscape:export-filename="/home/daniel/leet.png"
       inkscape:export-xdpi="90"
       inkscape:export-ydpi="90" />
    <path
       style="fill:#000000"
       id="path2852"
       d="m -5.8567858,-731.50726 c 12.3559875,0.64107 24.4756238,-1.83205 36.5023728,-4.28583 7.780766,-1.53906 4.085655,-0.6224 11.104862,-2.67001 0,0 -33.2228149,25.45545 -33.2228149,25.45545 l 0,0 c -7.0344332,1.61193 -3.3592704,0.8311 -11.0318855,2.31217 -12.4111016,2.42439 -24.9162096,4.16253 -37.5993186,4.06996 0,0 34.2467842,-24.88174 34.2467842,-24.88174 z"
       inkscape:export-filename="/home/daniel/leet.png"
       inkscape:export-xdpi="90"
       inkscape:export-ydpi="90" />
    <path
       style="fill:#000000"
       id="path2854"
       d="m 101.81259,-843.93364 c 0.1742,35.96751 7.12398,71.48943 12.52585,106.93247 7.51892,41.74721 12.69257,84.70039 28.26632,124.43158 0,0 -35.50795,19.59436 -35.50795,19.59436 l 0,0 c -12.228891,-41.25112 -18.801071,-83.93763 -26.370376,-126.21605 -5.983444,-35.03921 -13.114341,-69.97574 -16.141206,-105.43848 0,0 37.227362,-19.30388 37.227362,-19.30388 z"
       inkscape:export-filename="/home/daniel/leet.png"
       inkscape:export-xdpi="90"
       inkscape:export-ydpi="90" />
    <path
       style="fill:#000000"
       id="path2864"
       d="m 95.606883,-886.39052 c 1.30771,-9.90386 3.403829,-19.83147 9.015917,-28.30301 1.39834,-2.11082 3.12653,-3.98352 4.6898,-5.97528 5.13039,-5.01589 6.61562,-7.10486 13.09302,-10.71034 14.72386,-8.19566 29.34137,-16.64565 44.58241,-23.83394 8.08791,-3.81458 26.6511,-3.97545 35.59886,-4.01672 11.45744,0.99435 24.86146,1.32473 33.67847,10.00698 4.17679,4.11296 4.9115,7.27251 7.1544,12.51895 4.41821,18.66147 0.80015,37.8245 -1.38699,56.5427 -1.2904,12.28721 -3.63248,26.31657 3.38144,37.48821 1.33803,2.13119 3.17089,3.90828 4.75633,5.86241 14.57191,13.17802 31.65022,23.13637 47.16373,35.12598 15.75302,12.17471 15.17976,12.33328 29.47523,25.97811 16.22764,18.39184 30.80019,39.95961 35.88991,64.41401 0.6343,3.04759 0.75642,6.17968 1.13463,9.26952 0.12962,17.03206 -6.56181,26.50866 -18.86502,37.35684 -18.11003,13.34776 -38.56565,23.71648 -58.01612,34.65615 -6.94227,3.90458 -13.81412,7.01816 -21.46688,9.12429 -6.0176,0.84794 -9.15992,-1.17734 -13.42099,-4.95565 0,0 35.63577,-22.3826 35.63577,-22.3826 l 0,0 c 3.65536,2.51094 6.17128,3.04987 10.68975,1.87652 7.33729,-2.58492 5.29923,-1.62123 12.88237,-5.44199 2.58328,-1.30158 10.15832,-5.52983 7.68888,-4.02341 -53.65239,32.72944 -24.05097,14.15556 -12.35819,6.64372 12.38224,-9.83376 19.40691,-17.37584 20.77137,-33.86457 -0.16325,-2.9501 -0.0401,-5.9301 -0.48975,-8.8503 -3.69927,-24.02499 -17.88124,-45.33038 -33.40335,-63.29261 -14.20149,-13.55699 -13.36418,-13.5623 -29.269,-25.45716 -13.32539,-9.96577 -27.91041,-18.06575 -41.21133,-28.03347 -2.87845,-2.15712 -5.51483,-4.61964 -8.27224,-6.92946 -1.80297,-2.22527 -3.87415,-4.25774 -5.4089,-6.67581 -7.54456,-11.88686 -5.7407,-26.56841 -4.00788,-39.73261 2.25184,-17.98181 5.68562,-36.37132 1.87704,-54.3752 -0.81248,-1.94934 -1.39156,-4.0133 -2.43745,-5.84801 -6.87962,-12.06835 -22.85139,-12.24307 -34.94018,-13.09434 -10.85326,0.36493 -13.04545,-0.0366 -23.84039,2.29093 -3.77466,0.81388 -14.03355,5.6952 -11.15608,3.12021 7.62793,-6.82608 17.40317,-10.78563 25.97472,-16.3811 2.39723,-1.56491 -5.10922,2.62689 -7.44362,4.28406 -2.13027,1.51227 -3.9227,3.45146 -5.88405,5.17718 -1.63767,1.76977 -3.43076,3.40748 -4.91302,5.30931 -5.89269,7.56068 -8.45197,16.99287 -8.90143,26.42364 0,0 -38.041187,18.70786 -38.041187,18.70786 z"
       inkscape:export-filename="/home/daniel/leet.png"
       inkscape:export-xdpi="90"
       inkscape:export-ydpi="90" />
    <path
       style="fill:#000000"
       id="path2866"
       d="m 399.56049,-852.85073 c 21.33574,-13.69709 44.26827,-31.01497 70.552,-34.0945 3.791,-0.44417 7.62311,-0.405 11.43467,-0.6075 16.60102,0.9927 35.70324,-0.0519 50.68863,8.71468 1.76106,1.03024 3.17359,2.56501 4.76039,3.84752 0.73845,1.76986 1.96279,3.40854 2.21535,5.30957 2.02745,15.26111 -22.03581,30.71739 -32.06731,38.47649 -11.59942,9.46159 -27.92204,22.05904 -27.85697,38.9211 0.0465,12.06274 6.20836,18.62973 12.20331,28.67646 24.75782,32.68665 57.62939,57.58142 88.1776,84.42589 24.39901,21.44082 22.75698,20.50652 44.59128,42.54942 8.51091,10.53477 37.4641,37.97344 27.48456,54.63847 -2.09218,3.49377 -5.39248,6.28944 -8.88273,8.3875 -15.72031,9.44981 -32.30239,17.38571 -48.45359,26.07856 -5.66001,1.74954 -11.28336,3.62238 -16.98002,5.24862 -29.09768,8.30658 -7.46169,1.1872 -36.03227,9.94667 -9.61247,2.94709 -18.93427,6.85074 -28.65846,9.40515 -3.90664,1.02622 -7.9386,1.49618 -11.9079,2.24427 -4.28889,-0.34695 -8.57777,-0.6939 -12.86665,-1.04084 0,0 32.81635,-23.60633 32.81635,-23.60633 l 0,0 c 4.13353,0.0514 8.26706,0.10281 12.40058,0.15422 3.78395,-0.80114 7.61469,-1.40654 11.35185,-2.40341 9.44951,-2.5206 18.62965,-5.96563 28.00895,-8.73605 11.96108,-3.53302 24.1071,-6.43184 36.02156,-10.11903 5.77216,-1.78633 11.43101,-3.92014 17.14651,-5.8802 -6.85211,4.59965 -13.80555,9.05185 -20.55634,13.79896 -3.05106,2.14549 6.89402,-3.27485 9.45135,-5.99001 2.00251,-2.1261 3.55198,-5.03391 3.68001,-7.95178 0.66053,-15.05406 -18.25108,-34.16219 -25.89986,-44.71563 -20.00839,-21.22318 -20.53741,-22.70162 -43.3796,-42.86667 -30.97116,-27.34128 -64.95147,-51.72992 -91.40702,-83.82843 -7.20529,-10.92483 -13.86697,-17.37299 -14.75423,-30.76764 -1.20211,-18.14767 14.43839,-31.46486 26.90748,-41.6523 6.4263,-4.88233 13.82067,-10.27987 19.87657,-15.69293 4.52443,-4.04416 12.39717,-10.49151 12.86673,-17.37864 0.08,-1.17319 -0.5965,-2.27493 -0.89475,-3.41239 -1.2859,-1.03013 -2.42517,-2.27642 -3.8577,-3.09041 -14.22195,-8.0811 -33.19688,-7.32868 -48.89563,-7.52778 -10.47715,1.13267 -19.1637,2.41005 -28.95621,6.46914 -2.34888,0.97363 -9.04971,4.61829 -6.88374,3.28646 1.28001,-0.78706 43.97579,-25.62976 25.82114,-15.06563 0,0 -39.26589,15.84895 -39.26589,15.84895 z"
       inkscape:export-filename="/home/daniel/leet.png"
       inkscape:export-xdpi="90"
       inkscape:export-ydpi="90" />
    <path
       style="fill:#000000"
       id="path2868"
       d="m 531.03946,-1010.2974 c 35.07924,10.0295 71.13606,15.94248 106.88327,23.02733 55.97951,10.54 112.28472,19.55068 167.8354,32.27268 30.03508,6.87852 46.98861,11.79583 76.28023,19.7723 24.0275,7.93146 49.30364,14.27797 71.30338,27.31883 7.15659,4.24223 15.01245,10.0497 18.77213,17.90435 1.58067,3.3023 1.72674,7.11569 2.5901,10.67353 -0.72704,4.52369 -0.83562,9.19135 -2.18113,13.57108 -6.66979,21.71064 -24.28999,46.00871 -36.44205,64.70592 -9.26678,14.25791 -35.7794,54.42381 -44.32528,67.38842 -33.32363,51.76109 -67.13241,103.27951 -97.7632,156.70735 -7.61092,13.27536 -24.22791,43.90832 -32.15863,58.45813 -3.74876,6.87556 -7.49752,13.75111 -11.24628,20.62667 0,0 -34.92417,15.58419 -34.92417,15.58419 l 0,0 c 4.13234,-7.04193 8.26469,-14.08386 12.39703,-21.12578 11.45481,-19.8255 22.6739,-39.78814 34.30121,-59.51296 31.27505,-53.05573 64.97385,-104.62933 97.66558,-156.80992 15.29416,-23.9113 27.33868,-42.59186 42.23032,-66.41345 11.74675,-18.79081 26.91375,-40.59725 33.97744,-61.92882 1.27528,-3.85122 1.61777,-7.95082 2.42666,-11.92623 -0.54823,-3.09182 -0.43723,-6.37683 -1.64469,-9.27544 -3.03641,-7.28919 -10.156,-13.06656 -16.43586,-17.15489 -20.71639,-13.48685 -44.96337,-20.47147 -68.00854,-28.58921 -31.18647,-8.99306 -42.78382,-12.75314 -75.1507,-20.27843 -55.86023,-12.9875 -112.584,-21.91002 -169.13189,-31.24481 -37.52034,-6.26617 -75.24902,-11.51525 -112.37094,-19.92181 0,0 35.12061,-23.82903 35.12061,-23.82903 z"
       inkscape:export-filename="/home/daniel/leet.png"
       inkscape:export-xdpi="90"
       inkscape:export-ydpi="90" />
    <path
       style="fill:#000000"
       id="path2870"
       d="m 780.03272,-652.01705 c 2.03084,-0.0757 4.06535,-0.0834 6.09252,-0.22704 15.90576,-1.12664 31.73204,-3.44505 47.59566,-5.00355 17.86843,-1.75546 35.75702,-3.30123 53.6263,-5.04805 37.43453,-4.54057 18.99886,-2.01257 55.31304,-7.53998 0,0 -30.13237,22.5753 -30.13237,22.5753 l 0,0 c -36.1555,5.18275 -17.76431,2.759 -55.17886,7.231 -37.13819,3.97538 -74.20964,8.3004 -111.22999,13.23011 0,0 33.9137,-25.21779 33.9137,-25.21779 z"
       inkscape:export-filename="/home/daniel/leet.png"
       inkscape:export-xdpi="90"
       inkscape:export-ydpi="90" />
  </g>
</svg>
